<svg xmlns="http://www.w3.org/2000/svg" viewBox="74 1860.5 74 46.7">
  <defs>
    <style>
      .cls-1 {
        fill: none;
        stroke: #bf2031;
        stroke-miterlimit: 10;
        stroke-width: 2px;
      }
    </style>
  </defs>
  <path id="Path_5" data-name="Path 5" class="cls-1" d="M65.5,6.8h-18V2.4h18Zm-30,18.4a11.6,11.6,0,0,1,1.7,6.6,13.085,13.085,0,0,1-2,7.1A10.745,10.745,0,0,1,32,42.4a11.83,11.83,0,0,1-5.1,2.2,31.341,31.341,0,0,1-6.3.6H.5V.5H22.1c5.5.1,9.3,1.7,11.6,4.8a11.215,11.215,0,0,1,2.1,6.8,10.043,10.043,0,0,1-2.1,6.6,12.106,12.106,0,0,1-3.4,2.6,9.91,9.91,0,0,1,5.2,3.9Zm-24.7-7h9.5A9.333,9.333,0,0,0,25,17.1a4.231,4.231,0,0,0,1.8-3.9c0-2.1-.8-3.5-2.4-4.1a15.816,15.816,0,0,0-5.3-.7H10.8v9.8Zm17,12.9A4.822,4.822,0,0,0,25,26.3a12.966,12.966,0,0,0-4.5-.8H10.9V37.4h9.5a10.989,10.989,0,0,0,4.5-.8c1.9-.8,2.9-2.7,2.9-5.5Zm44.4-7.2a51.353,51.353,0,0,1,.3,6.4H49.1c.1,3.2,1.2,5.5,3.4,6.8a8.52,8.52,0,0,0,4.6,1.2,7.16,7.16,0,0,0,4.7-1.5,6.455,6.455,0,0,0,1.7-2.2h8.6c-.2,1.9-1.3,3.8-3.1,5.8-2.9,3-7,4.6-12.1,4.6a17.631,17.631,0,0,1-11.3-3.9c-3.3-2.6-4.9-6.9-4.9-12.9,0-5.6,1.5-9.8,4.4-12.8,3-3,6.8-4.4,11.5-4.4a17.936,17.936,0,0,1,7.5,1.5,13.119,13.119,0,0,1,5.5,4.7,14.732,14.732,0,0,1,2.6,6.7Zm-8.4.8a7.548,7.548,0,0,0-2.2-5.1,7.074,7.074,0,0,0-5-1.7,6.655,6.655,0,0,0-5,1.8,8.575,8.575,0,0,0-2.2,5H63.8Zm0,0" transform="translate(74.5 1861)"/>
</svg>
