<svg id="Capa_1" data-name="Capa 1" xmlns="http://www.w3.org/2000/svg" viewBox="0 0 64 64.48"><defs><style>.cls-1{fill:#fff;}</style></defs><title>yoco_logo_web_portada</title><path class="cls-1" d="M48.7,30.6a15.3,15.3,0,1,0-15.3-15.3A15.3,15.3,0,0,0,48.7,30.6Zm0-22.05a6.76,6.76,0,1,1-6.76,6.76A6.76,6.76,0,0,1,48.7,8.55Z"/><path class="cls-1" d="M48.7,33.89A15.3,15.3,0,1,0,64,49.19,15.3,15.3,0,0,0,48.7,33.89Zm0,22.05a6.76,6.76,0,1,1,6.76-6.76A6.76,6.76,0,0,1,48.7,55.94Z"/><path class="cls-1" d="M15.29,42.48a6.64,6.64,0,0,1,3.77,1.16,4.26,4.26,0,0,0,7.08-3.2c0-.07,0-.13,0-.2s0-.08,0-.12,0-.15,0-.22,0-.2,0-.3v0A4.25,4.25,0,0,0,24.42,37a15.13,15.13,0,0,0-9.13-3C6.88,33.93-.55,40.79,0,49.19.65,58,7.75,65.08,15.29,64.44a15.13,15.13,0,0,0,9.14-3,4.27,4.27,0,1,0-5.12-6.84,6.65,6.65,0,0,1-4,1.33,6.71,6.71,0,1,1,0-13.42Z"/><path class="cls-1" d="M29,2.12l0-.06-.25-.31-.09-.1-.25-.26-.11-.1L28,1.06l0,0-.06,0L27.55.77,27.45.7,27.1.52,27,.47,26.63.32l-.06,0L26.13.16h0a5,5,0,0,0-5.37,2L15,9.73,9.22,2A5.07,5.07,0,0,0,2.15,1h0a5.07,5.07,0,0,0-1,7.08l9.11,12.08v5.6A4.77,4.77,0,0,0,15,30.53h0a4.77,4.77,0,0,0,4.76-4.76V20.23l9-11.95A5,5,0,0,0,29,2.12Z"/></svg>